PathFileType	4	(X/Y/Z)	E:\Qualisys_Data\Carbon_Farble_Plate\Data\Amateur_Runner\S14\T2\S14T2V26_c3d.trc
DataRate	CameraRate	NumFrames	NumMarkers	Units	OrigDataRate	OrigDataStartFrame	OrigNumFrames
200.000000	200.000000	4	39	mm	200.000000	259	296
Frame#	Time	LSHO			RSHO			LICST			RICST			LASIS			LHEEL			RASIS			LTROC			RTROC			SACR			LTH1			LSK4			LTH2			LTH3			RHM5			LSK2			LTH4			RTH1			LTOE			RTH2			RTH3			RTH4			LLEP			RLEP			LSK1			LSK3			RSK1			LHM5			RSK2			LFT1			RSK3			RSK4			LLME			RLME			RTOE			RHEEL			RFT1			RFT2			LFT2			
		X1	Y1	Z1	X2	Y2	Z2	X3	Y3	Z3	X4	Y4	Z4	X5	Y5	Z5	X6	Y6	Z6	X7	Y7	Z7	X8	Y8	Z8	X9	Y9	Z9	X10	Y10	Z10	X11	Y11	Z11	X12	Y12	Z12	X13	Y13	Z13	X14	Y14	Z14	X15	Y15	Z15	X16	Y16	Z16	X17	Y17	Z17	X18	Y18	Z18	X19	Y19	Z19	X20	Y20	Z20	X21	Y21	Z21	X22	Y22	Z22	X23	Y23	Z23	X24	Y24	Z24	X25	Y25	Z25	X26	Y26	Z26	X27	Y27	Z27	X28	Y28	Z28	X29	Y29	Z29	X30	Y30	Z30	X31	Y31	Z31	X32	Y32	Z32	X33	Y33	Z33	X34	Y34	Z34	X35	Y35	Z35	X36	Y36	Z36	X37	Y37	Z37	X38	Y38	Z38	X39	Y39	Z39	

260	1.295	2481.99072265625	1427.514770507812	-570.3602294921875	2447.365478515625	1421.39404296875	-274.3949890136719	2466.566650390625	975.3571166992188	-557.6754760742188	2490.6875	975.3826293945312	-282.5763854980469	2514.721435546875	927.8455200195312	-539.9813232421875	2081.402587890625	190.2862091064453	-441.7681274414062	2520.479736328125	936.7118530273438	-304.5014038085938	2375.866943359375	857.3463134765625	-579.1016235351562	2406.390625	843.1286010742188	-243.7564392089844	2340.21533203125	967.3248901367188	-423.3792114257812	2438.422607421875	625.76904296875	-585.8418579101562	2229.532958984375	339.2859802246094	-532.8927001953125	2363.4345703125	627.5153198242188	-561.6530151367188	2445.285888671875	527.5469970703125	-567.958740234375	2494.37109375	107.6488876342773	-266.6363830566406	2293.6044921875	410.8312377929688	-556.8248291015625	2367.7197265625	530.2910766601562	-546.4738159179688	2634.320068359375	707.6624755859375	-268.0169067382812	2271.3271484375	41.39701080322266	-486.3230285644531	2568.427490234375	669.8252563476562	-252.6080322265625	2683.338623046875	624.0595703125	-296.594482421875	2614.5751953125	580.968505859375	-273.4555053710938	2386.694580078125	459.2295837402344	-562.5794067382812	2663.760498046875	534.6680297851562	-282.2037353515625	2355.723876953125	355.851318359375	-557.9428100585938	2286.958984375	282.29296875	-538.59326171875	2625.582275390625	422.4894714355469	-282.9443054199219	2197.204833984375	49.01338958740234	-544.000244140625	2553.6328125	468.2309265136719	-282.0400695800781	2076.85107421875	162.1435394287109	-417.5302429199219	2563.806884765625	338.9414367675781	-293.1338195800781	2501.43798828125	387.0057373046875	-289.5105590820312	2139.70654296875	179.8292236328125	-509.8986511230469	2428.23779296875	227.8391265869141	-302.8581237792969	2563.31201171875	66.0467529296875	-326.9513244628906	2366.4619140625	236.0271453857422	-359.4649658203125	2359.222412109375	201.7142333984375	-384.4421997070312	2350.145263671875	215.6724700927734	-331.1547241210938	2060.80322265625	161.3802337646484	-470.6268615722656
261	1.3	2502.187744140625	1431.422485351562	-567.7216186523438	2463.036865234375	1424.553833007812	-274.0041809082031	2487.341796875	978.6336669921876	-557.22802734375	2510.066162109375	979.4916381835938	-281.77392578125	2535.88330078125	931.2838745117188	-538.8754272460938	2091.517333984375	199.0019836425781	-445.2933349609375	2539.981689453125	940.66650390625	-304.0601501464844	2395.32666015625	860.740478515625	-579.0819091796875	2426.753662109375	847.124267578125	-242.6617279052734	2360.026123046875	969.9248657226562	-422.8759765625	2453.24365234375	628.72314453125	-586.7742919921875	2239.480712890625	344.9253234863281	-534.9837036132812	2378.38671875	631.6786499023438	-563.3994140625	2458.29736328125	530.4443359375	-569.5296630859375	2539.7109375	103.3549194335938	-267.8421325683594	2302.271484375	416.4146423339844	-557.9635009765625	2381.067626953125	533.7637329101562	-548.5736083984375	2653.051025390625	712.2398071289062	-266.3673095703125	2274.179443359375	40.27277755737305	-487.6122436523438	2588.61328125	673.9822387695312	-253.2868194580078	2703.94384765625	628.744873046875	-297.1628723144531	2634.970703125	585.16796875	-274.1453552246094	2398.136474609375	462.9923706054688	-564.265869140625	2684.77490234375	538.7117309570312	-283.0339965820312	2365.772705078125	360.1900329589844	-560.794921875	2296.500732421875	287.4781188964844	-542.0958251953125	2651.092529296875	423.5438537597656	-283.103271484375	2200.518798828125	50.3708381652832	-545.030517578125	2576.6611328125	465.4199523925781	-282.6397399902344	2085.495849609375	171.8249359130859	-420.9761962890625	2593.95263671875	337.5525207519531	-293.6630554199219	2529.36572265625	381.7196960449219	-290.3755187988281	2148.497314453125	185.4186706542969	-512.6241455078125	2464.94189453125	218.4672393798828	-303.2982788085938	2607.991943359375	64.38771057128906	-327.3408508300781	2402.658447265625	223.3795318603516	-360.1083679199219	2396.998291015625	188.2590942382812	-384.2473754882812	2387.489013671875	201.8699188232422	-331.7267150878906	2069.491455078125	170.9416046142578	-474.0946960449219
262	1.305	2522.150390625	1435.433715820312	-565.72216796875	2479.463623046875	1427.547241210938	-273.5136413574219	2507.631591796875	981.5667724609376	-556.474853515625	2530.3017578125	982.9580078125	-282.1895141601562	2554.93994140625	933.6947021484376	-538.2626953125	2102.300048828125	208.076171875	-449.0333557128906	2560.088623046875	944.4541015625	-303.3572082519531	2414.7978515625	864.4244995117188	-578.5824584960938	2447.0751953125	850.9569702148438	-241.8857421875	2380.0537109375	972.75927734375	-421.8728332519531	2469.039306640625	631.8494873046875	-588.1152954101562	2249.916015625	350.4880676269531	-537.655517578125	2393.77099609375	636.0101318359375	-564.3875122070312	2471.692138671875	533.2012329101562	-571.0731201171875	2578.904296875	95.89256286621094	-269.4873046875	2316.07177734375	420.9432678222656	-561.0323486328125	2394.161376953125	537.9183959960938	-550.5215454101562	2674.568359375	716.0887451171875	-269.1553344726562	2276.935302734375	38.41937637329102	-488.1221313476562	2608.618896484375	677.893310546875	-253.7598571777344	2724.123046875	632.76171875	-297.8165893554688	2655.56787109375	589.7279052734375	-275.1283264160156	2410.3369140625	467.2647705078125	-566.7241821289062	2705.000244140625	542.6947631835938	-283.9447937011719	2376.630859375	364.7611389160156	-563.4052124023438	2306.29345703125	292.5303649902344	-545.149169921875	2676.88720703125	424.5032958984375	-283.6021728515625	2204.163818359375	52.26168441772461	-546.4938354492188	2600.240478515625	462.3363647460938	-282.1513977050781	2094.87841796875	181.4152679443359	-424.7711486816406	2624.35400390625	335.3180541992188	-293.8965454101562	2557.393310546875	376.2167053222656	-290.3634948730469	2158.16943359375	190.8886413574219	-515.891845703125	2500.09228515625	209.5903625488281	-303.73193359375	2653.27392578125	64.2646255493164	-328.3967895507812	2439.45947265625	211.0182037353516	-360.4965209960938	2436.8583984375	175.5597839355469	-385.9865112304688	2425.074462890625	188.7188110351562	-332.5451049804688	2079.136962890625	180.5655364990234	-477.6637878417969
263	1.31	2542.6826171875	1439.038208007812	-564.2385864257812	2495.236328125	1430.505615234375	-272.8952331542969	2527.95849609375	984.1866455078124	-556.0155639648438	2548.8115234375	986.729736328125	-281.2394104003906	2574.839599609375	936.936279296875	-536.6904296875	2114.32080078125	217.4990997314453	-454.1459350585938	2579.47216796875	948.013671875	-302.2041931152344	2434.01220703125	867.5355224609375	-578.4417724609375	2467.199951171875	855.2059326171875	-241.2193145751953	2399.68701171875	975.8021850585938	-421.8728332519531	2483.37646484375	634.5762329101562	-588.5646362304688	2260.55029296875	356.1258544921875	-540.141357421875	2408.7568359375	639.6211547851562	-564.7936401367188	2484.881591796875	536.0176391601562	-572.797119140625	2622.206298828125	92.09967803955078	-270.7494812011719	2327.79638671875	425.8602294921875	-562.7943725585938	2407.53466796875	541.4828491210938	-551.749755859375	2694.90185546875	719.0855102539062	-269.4408874511719	2280.173583984375	37.25983047485352	-488.9158325195312	2628.600341796875	681.0863037109375	-254.3610076904297	2743.84326171875	636.3507080078125	-298.8360290527344	2675.10498046875	593.5761108398438	-276.3866882324219	2422.11572265625	471.11474609375	-567.8431396484375	2724.611328125	545.9368896484375	-283.6097717285156	2387.609375	369.5880432128906	-565.9100341796875	2315.09716796875	297.2705688476562	-547.786865234375	2702.087646484375	424.9355163574219	-283.8742980957031	2208.34228515625	54.4432258605957	-547.8321533203125	2623.434814453125	458.5265197753906	-282.3870544433594	2104.64453125	191.2079772949219	-428.7074279785156	2656.030517578125	332.4579467773438	-295.5336608886719	2585.366455078125	370.5042419433594	-290.5432434082031	2167.64501953125	196.6656799316406	-519.32470703125	2538.83251953125	201.03857421875	-304.64111328125	2698.6630859375	64.37092590332031	-329.3955383300781	2476.37548828125	199.1595611572266	-360.7595825195312	2476.09814453125	163.5567321777344	-386.6869812011719	2463.751220703125	175.541748046875	-333.2640991210938	2089.421630859375	190.4956512451172	-482.0924377441406
